<?xml version="1.0" encoding="UTF-8" standalone="no"?>
<svg
   enable-background="new 0 0 64 64"
   viewBox="0 0 4096 4096"
   id="heartbeat-machine"
   version="1.1"
   sodipodi:docname="heartbeat-machine.svg"
   width="4096"
   height="4096"
   xmlns:inkscape="http://www.inkscape.org/namespaces/inkscape"
   xmlns:sodipodi="http://sodipodi.sourceforge.net/DTD/sodipodi-0.dtd"
   xmlns="http://www.w3.org/2000/svg"
   xmlns:svg="http://www.w3.org/2000/svg">
  <defs
     id="defs19" />
  <sodipodi:namedview
     id="namedview17"
     pagecolor="#ffffff"
     bordercolor="#000000"
     borderopacity="0.25"
     inkscape:showpageshadow="2"
     inkscape:pageopacity="0.0"
     inkscape:pagecheckerboard="0"
     inkscape:deskcolor="#d1d1d1"
     showgrid="false" />
  <path
     d="M 57.9,52.42 H 18.88 C 17.29,52.42 16,51.13 16,49.54 v -2.77 c 0,-0.54 0.43,-0.97 0.97,-0.97 0.54,0 0.97,0.43 0.97,0.97 v 2.77 c 0,0.52 0.42,0.94 0.94,0.94 H 57.9 c 0.52,0 0.94,-0.42 0.94,-0.94 v -2.77 c 0,-0.54 0.43,-0.97 0.97,-0.97 0.54,0 0.97,0.43 0.97,0.97 v 2.77 c 0,1.58 -1.29,2.88 -2.88,2.88 z"
     id="path2"
     style="fill:#008000" />
  <path
     d="M 60.82,47.73 H 15.96 c -1.75,0 -3.18,-1.43 -3.18,-3.18 V 8.03 c 0,-1.75 1.43,-3.18 3.18,-3.18 h 44.86 c 1.75,0 3.18,1.43 3.18,3.18 v 36.52 c 0,1.75 -1.43,3.18 -3.18,3.18 z M 15.96,6.79 c -0.68,0 -1.24,0.56 -1.24,1.24 v 36.52 c 0,0.68 0.56,1.24 1.24,1.24 h 44.86 c 0.68,0 1.24,-0.56 1.24,-1.24 V 8.03 c 0,-0.68 -0.56,-1.24 -1.24,-1.24 z"
     id="path4"
     style="fill:#008000" />
  <path
     d="M 55.66,42.62 H 21.12 c -1.54,0 -2.79,-1.25 -2.79,-2.79 V 12.75 c 0,-1.54 1.25,-2.79 2.79,-2.79 h 34.55 c 1.54,0 2.79,1.25 2.79,2.79 v 27.09 c -0.01,1.53 -1.26,2.78 -2.8,2.78 z M 21.12,11.9 c -0.47,0 -0.85,0.38 -0.85,0.85 v 27.09 c 0,0.47 0.38,0.85 0.85,0.85 h 34.55 c 0.47,0 0.85,-0.38 0.85,-0.85 V 12.75 c 0,-0.47 -0.38,-0.85 -0.85,-0.85 z"
     id="path6"
     style="fill:#008000" />
  <path
     d="M 43.82,22.77 H 23.75 c -0.54,0 -0.97,-0.43 -0.97,-0.97 v -6.47 c 0,-0.54 0.43,-0.97 0.97,-0.97 h 20.07 c 0.54,0 0.97,0.43 0.97,0.97 v 6.47 c 0,0.53 -0.43,0.97 -0.97,0.97 z M 24.72,20.83 H 42.85 V 16.3 H 24.72 Z m 9.67,12.43 c -0.31,0 -0.6,-0.15 -0.79,-0.4 L 31.55,30.03 H 29.8 c -0.3,0 -0.58,-0.14 -0.77,-0.38 l -1.37,-1.77 -1.37,1.77 c -0.18,0.24 -0.47,0.38 -0.77,0.38 h -1.78 c -0.54,0 -0.97,-0.43 -0.97,-0.97 0,-0.54 0.43,-0.97 0.97,-0.97 h 1.3 l 1.84,-2.39 c 0.37,-0.48 1.17,-0.48 1.54,0 l 1.84,2.39 h 1.78 c 0.31,0 0.6,0.15 0.79,0.4 l 1.52,2.1 1.22,-1.84 c 0.18,-0.27 0.48,-0.43 0.81,-0.43 h 2.73 l 2.24,-3.22 c 0.2,-0.28 0.52,-0.44 0.87,-0.41 0.34,0.03 0.65,0.23 0.8,0.54 l 1.6,3.28 h 0.73 c 0.54,0 0.97,0.43 0.97,0.97 0,0.54 -0.43,0.97 -0.97,0.97 h -1.34 c -0.37,0 -0.71,-0.21 -0.87,-0.55 L 42,27.57 40.41,29.85 c -0.18,0.26 -0.48,0.42 -0.8,0.42 H 36.9 l -1.71,2.57 c -0.18,0.26 -0.47,0.43 -0.79,0.43 0.01,-0.01 0,-0.01 -0.01,-0.01 z m 16.85,-12.2 c -1.85,0 -3.35,-1.5 -3.35,-3.35 0,-1.85 1.5,-3.35 3.35,-3.35 1.85,0 3.35,1.5 3.35,3.35 0,1.85 -1.51,3.35 -3.35,3.35 z m 0,-4.76 c -0.78,0 -1.41,0.63 -1.41,1.41 0,0.78 0.63,1.41 1.41,1.41 0.78,0 1.41,-0.63 1.41,-1.41 0,-0.78 -0.64,-1.41 -1.41,-1.41 z m 0,13.34 c -1.85,0 -3.35,-1.5 -3.35,-3.35 0,-1.85 1.5,-3.35 3.35,-3.35 1.85,0 3.35,1.5 3.35,3.35 0,1.85 -1.51,3.35 -3.35,3.35 z m 0,-4.76 c -0.78,0 -1.41,0.63 -1.41,1.41 0,0.78 0.63,1.41 1.41,1.41 0.78,0 1.41,-0.63 1.41,-1.41 0,-0.78 -0.64,-1.41 -1.41,-1.41 z m 0,13.34 c -1.85,0 -3.35,-1.5 -3.35,-3.35 0,-1.85 1.5,-3.35 3.35,-3.35 1.85,0 3.35,1.5 3.35,3.35 0,1.85 -1.51,3.35 -3.35,3.35 z m 0,-4.76 c -0.78,0 -1.41,0.63 -1.41,1.41 0,0.78 0.63,1.41 1.41,1.41 0.78,0 1.41,-0.63 1.41,-1.41 0,-0.77 -0.64,-1.41 -1.41,-1.41 z M 28.39,37.7 h -4.64 c -0.54,0 -0.97,-0.43 -0.97,-0.97 0,-0.54 0.43,-0.97 0.97,-0.97 h 4.64 c 0.54,0 0.97,0.43 0.97,0.97 0,0.54 -0.44,0.97 -0.97,0.97 z m 8.96,0 h -4.64 c -0.54,0 -0.97,-0.43 -0.97,-0.97 0,-0.54 0.43,-0.97 0.97,-0.97 h 4.64 c 0.54,0 0.97,0.43 0.97,0.97 0,0.54 -0.43,0.97 -0.97,0.97 z m 8.97,0 h -4.64 c -0.54,0 -0.97,-0.43 -0.97,-0.97 0,-0.54 0.43,-0.97 0.97,-0.97 h 4.64 c 0.54,0 0.97,0.43 0.97,0.97 0,0.54 -0.43,0.97 -0.97,0.97 z M 13.75,19.53 H 9.84 C 9.3,19.53 8.87,19.1 8.87,18.56 v -5.32 c 0,-0.54 0.43,-0.97 0.97,-0.97 h 3.91 c 0.54,0 0.97,0.43 0.97,0.97 0,0.54 -0.43,0.97 -0.97,0.97 h -2.94 v 3.38 h 2.94 c 0.54,0 0.97,0.43 0.97,0.97 0,0.54 -0.44,0.97 -0.97,0.97 z"
     id="path8"
     style="fill:#008000" />
  <path
     d="M 8.56,59.15 C 8.24,59.15 7.92,58.99 7.74,58.7 2.67,50.64 0,41.35 0,31.83 v -7.06 c 0,-5.42 4.41,-9.84 9.84,-9.84 0.54,0 0.97,0.43 0.97,0.97 0,0.54 -0.43,0.97 -0.97,0.97 -4.36,0 -7.9,3.54 -7.9,7.9 v 7.06 c 0,9.15 2.57,18.08 7.44,25.83 0.28,0.45 0.15,1.05 -0.3,1.34 -0.17,0.1 -0.35,0.15 -0.52,0.15 z"
     id="path10"
     style="fill:#008000" />
  <path
     d="M 13.75,29.32 H 9.84 c -0.54,0 -0.97,-0.43 -0.97,-0.97 v -5.32 c 0,-0.54 0.43,-0.97 0.97,-0.97 h 3.91 c 0.54,0 0.97,0.43 0.97,0.97 0,0.54 -0.44,0.97 -0.97,0.97 h -2.94 v 3.38 h 2.94 c 0.54,0 0.97,0.43 0.97,0.97 0,0.54 -0.44,0.97 -0.97,0.97 z"
     id="path12"
     style="fill:#008000" />
  <path
     d="m 13.04,56.22 c -0.37,0 -0.72,-0.21 -0.88,-0.56 C 5.26,40.73 3.25,31 6.19,26.73 7.66,24.59 9.81,24.72 9.9,24.72 c 0.53,0.04 0.94,0.5 0.9,1.03 -0.04,0.53 -0.49,0.97 -1.02,0.9 -0.06,0 -1.2,-0.01 -2.03,1.22 -1.39,2.09 -2.43,8.37 6.16,26.96 0.23,0.49 0.01,1.06 -0.47,1.29 -0.12,0.07 -0.26,0.1 -0.4,0.1 z"
     id="path14"
     style="fill:#008000" />
</svg>
